<?xml version="1.0" encoding="utf-8"?>
<!-- Generator: Adobe Illustrator 18.0.0, SVG Export Plug-In . SVG Version: 6.00 Build 0)  -->
<!DOCTYPE svg PUBLIC "-//W3C//DTD SVG 1.1//EN" "http://www.w3.org/Graphics/SVG/1.1/DTD/svg11.dtd">
<svg version="1.1" id="Layer_1" xmlns="http://www.w3.org/2000/svg" xmlns:xlink="http://www.w3.org/1999/xlink" x="0px" y="0px"
	 viewBox="0 0 22 20" enable-background="new 0 0 22 20" xml:space="preserve">
<g display="none">
	<circle display="inline" cx="11.3" cy="3.2" r="7.1"/>
	<path display="inline" d="M16.9,12.9H5.6c-4.7,0-8.5,4-8.5,9h28.3C25.4,16.9,21.6,12.9,16.9,12.9z"/>
</g>
<g display="none">
	<g display="inline">
		<path d="M11.4-2.8c3.4,0,6.1,2.7,6.1,6.1s-2.7,6.1-6.1,6.1S5.3,6.6,5.3,3.2S8.1-2.8,11.4-2.8 M11.4-3.8c-3.9,0-7.1,3.2-7.1,7.1
			c0,3.9,3.2,7.1,7.1,7.1c3.9,0,7.1-3.2,7.1-7.1C18.5-0.7,15.3-3.8,11.4-3.8L11.4-3.8z"/>
	</g>
	<g display="inline">
		<path d="M17.1,14.9c3.4,0,7,2,7.5,7H-1.7c0.4-5,4.1-7,7.5-7h11.5 M17.1,13.9H5.8c-4.7,0-8.5,3-8.5,9h28.3
			C25.6,16.9,21.8,13.9,17.1,13.9L17.1,13.9z"/>
	</g>
</g>
<g>
	<g>
		<path fill="#000000" d="M11,1.8c2.2,0,4,1.8,4,4s-1.8,4-4,4S7,8,7,5.8S8.8,1.8,11,1.8 M11,0.8c-2.8,0-5,2.2-5,5s2.2,5,5,5
			c2.8,0,5-2.2,5-5S13.8,0.8,11,0.8L11,0.8z"/>
	</g>
	<g>
		<path fill="#000000" d="M15,13.9c2.8,0,4.6,2,4.9,4H2.1c0.4-2,2.1-4,4.9-4h8.3 M15,12.9H7c-3.3,0-6,2-6,6h20
			C21,14.9,18.3,12.9,15,12.9L15,12.9z"/>
	</g>
</g>
<g display="none">
	<circle display="inline" fill="#000000" cx="11.9" cy="4.8" r="5"/>
	<path display="inline" fill="#000000" d="M15.9,11.9h-8c-3.3,0-6,3-6,6h20C21.9,14.9,19.2,11.9,15.9,11.9z"/>
</g>
</svg>
